<svg width="20" height="20" viewBox="0 0 20 20" fill="none" xmlns="http://www.w3.org/2000/svg">
<g clip-path="url(#clip0_318_292)">
<path d="M1.33026 8.26848L13.7347 1.10678L13.7347 15.4302L1.33026 8.26848Z" fill="#FFF2CF"/>
<path d="M16.3226 7.56008C16.2639 7.42518 16.1686 7.30941 16.0475 7.22589C15.9264 7.14237 15.7844 7.09444 15.6374 7.08753H12.0303L13.0305 3.35439C13.0624 3.23757 13.0669 3.11498 13.0437 2.99614C13.0204 2.87731 12.9701 2.76542 12.8966 2.66919C12.8233 2.57388 12.729 2.49664 12.6212 2.4434C12.5133 2.39016 12.3947 2.36232 12.2744 2.36203H6.76137C6.58357 2.35594 6.40894 2.41023 6.26592 2.51606C6.12291 2.62189 6.01994 2.77302 5.97379 2.94484L3.86307 10.8207C3.83122 10.9375 3.82672 11.0601 3.84995 11.1789C3.87317 11.2977 3.92347 11.4096 3.99696 11.5059C4.07114 11.6022 4.16663 11.6801 4.27594 11.7334C4.38525 11.7867 4.50542 11.8139 4.62703 11.813H7.67497L6.24945 17.1213C6.20274 17.2925 6.2152 17.4744 6.28481 17.6376C6.35442 17.8008 6.4771 17.9357 6.63297 18.0205C6.78884 18.1053 6.96876 18.1349 7.14359 18.1047C7.31842 18.0744 7.47791 17.986 7.59621 17.8538L16.1809 8.40279C16.2831 8.29086 16.3508 8.15181 16.376 8.00233C16.4011 7.85285 16.3826 7.69929 16.3226 7.56008ZM8.61219 14.3963L9.4549 11.246C9.48676 11.1291 9.49125 11.0066 9.46803 10.8877C9.44481 10.7689 9.3945 10.657 9.32101 10.5608C9.24765 10.4655 9.15342 10.3882 9.04557 10.335C8.93772 10.2817 8.8191 10.2539 8.69883 10.2536H5.67451L7.35994 3.9372H11.2427L10.2425 7.67034C10.2104 7.78931 10.2066 7.91415 10.2315 8.03483C10.2565 8.15551 10.3093 8.26866 10.386 8.36518C10.4626 8.46171 10.5607 8.53891 10.6726 8.59058C10.7845 8.64225 10.9069 8.66695 11.0301 8.66269H13.8417L8.61219 14.3963Z" fill="#0B0A0A"/>
</g>
<defs>
<clipPath id="clip0_318_292">
<rect width="18.902" height="18.902" fill="white" transform="translate(0.673706 0.787201)"/>
</clipPath>
</defs>
</svg>
