<svg width="20" height="20" viewBox="0 0 20 20" fill="none" xmlns="http://www.w3.org/2000/svg">
<rect x="3.04822" y="4.67783" width="13.3889" height="13.3889" fill="#D6FFDC"/>
<path d="M15.9123 7.04111L11.1868 2.89843C10.7536 2.51097 10.1928 2.29677 9.61163 2.29677C9.03045 2.29677 8.46965 2.51097 8.03646 2.89843L3.31097 7.04111C3.06081 7.26484 2.86118 7.5393 2.72538 7.84621C2.58958 8.15312 2.52072 8.48544 2.52339 8.82104V15.7045C2.52339 16.3311 2.77232 16.9321 3.21542 17.3752C3.65852 17.8183 4.2595 18.0673 4.88614 18.0673H14.3371C14.9638 18.0673 15.5647 17.8183 16.0078 17.3752C16.4509 16.9321 16.6999 16.3311 16.6999 15.7045V8.81317C16.7014 8.47889 16.632 8.14809 16.4962 7.84262C16.3605 7.53715 16.1614 7.26396 15.9123 7.04111ZM11.1868 16.4921H8.03646V12.5542C8.03646 12.3453 8.11944 12.145 8.26714 11.9973C8.41484 11.8496 8.61517 11.7666 8.82405 11.7666H10.3992C10.6081 11.7666 10.8084 11.8496 10.9561 11.9973C11.1038 12.145 11.1868 12.3453 11.1868 12.5542V16.4921ZM15.1247 15.7045C15.1247 15.9134 15.0417 16.1137 14.894 16.2614C14.7463 16.4091 14.546 16.4921 14.3371 16.4921H12.762V12.5542C12.762 11.9275 12.513 11.3266 12.0699 10.8835C11.6268 10.4404 11.0258 10.1914 10.3992 10.1914H8.82405C8.19741 10.1914 7.59643 10.4404 7.15333 10.8835C6.71023 11.3266 6.4613 11.9275 6.4613 12.5542V16.4921H4.88614C4.67726 16.4921 4.47693 16.4091 4.32923 16.2614C4.18153 16.1137 4.09855 15.9134 4.09855 15.7045V8.81317C4.0987 8.70134 4.12265 8.59083 4.16882 8.48898C4.21499 8.38713 4.28232 8.29629 4.36633 8.22248L9.09182 4.08768C9.23555 3.96141 9.42032 3.89178 9.61163 3.89178C9.80294 3.89178 9.98771 3.96141 10.1314 4.08768L14.8569 8.22248C14.9409 8.29629 15.0083 8.38713 15.0544 8.48898C15.1006 8.59083 15.1246 8.70134 15.1247 8.81317V15.7045Z" fill="black"/>
</svg>
