<svg width="20" height="20" viewBox="0 0 20 20" fill="none" xmlns="http://www.w3.org/2000/svg">
<path d="M16.3266 6.9998L11.6011 2.85712C11.1679 2.46967 10.6071 2.25546 10.0259 2.25546C9.44475 2.25546 8.88396 2.46967 8.45077 2.85712L3.72528 6.9998C3.47512 7.22353 3.27549 7.49799 3.13969 7.8049C3.00389 8.11181 2.93503 8.44414 2.9377 8.77974V15.6632C2.9377 16.2898 3.18663 16.8908 3.62973 17.3339C4.07283 17.777 4.6738 18.026 5.30044 18.026H14.7514C15.3781 18.026 15.979 17.777 16.4221 17.3339C16.8652 16.8908 17.1142 16.2898 17.1142 15.6632V8.77186C17.1157 8.43758 17.0463 8.10678 16.9106 7.80131C16.7748 7.49584 16.5758 7.22265 16.3266 6.9998ZM11.6011 16.4508H8.45077V12.5129C8.45077 12.304 8.53375 12.1037 8.68145 11.956C8.82915 11.8083 9.02947 11.7253 9.23835 11.7253H10.8135C11.0224 11.7253 11.2227 11.8083 11.3704 11.956C11.5181 12.1037 11.6011 12.304 11.6011 12.5129V16.4508ZM15.539 15.6632C15.539 15.8721 15.456 16.0724 15.3083 16.2201C15.1606 16.3678 14.9603 16.4508 14.7514 16.4508H13.1763V12.5129C13.1763 11.8862 12.9273 11.2853 12.4842 10.8422C12.0411 10.3991 11.4402 10.1501 10.8135 10.1501H9.23835C8.61171 10.1501 8.01074 10.3991 7.56764 10.8422C7.12454 11.2853 6.87561 11.8862 6.87561 12.5129V16.4508H5.30044C5.09156 16.4508 4.89124 16.3678 4.74354 16.2201C4.59584 16.0724 4.51286 15.8721 4.51286 15.6632V8.77186C4.513 8.66004 4.53696 8.54953 4.58313 8.44768C4.6293 8.34583 4.69663 8.25498 4.78064 8.18118L9.50613 4.04637C9.64985 3.92011 9.83462 3.85047 10.0259 3.85047C10.2172 3.85047 10.402 3.92011 10.5457 4.04637L15.2712 8.18118C15.3552 8.25498 15.4226 8.34583 15.4687 8.44768C15.5149 8.54953 15.5389 8.66004 15.539 8.77186V15.6632Z" fill="black"/>
</svg>
