<svg width="18" height="19" viewBox="0 0 18 19" fill="none" xmlns="http://www.w3.org/2000/svg">
<path fill-rule="evenodd" clip-rule="evenodd" d="M3.76762 6.17627H2.8125C2.36475 6.17627 1.93556 6.35402 1.61944 6.67071C1.30275 6.98739 1.125 7.41658 1.125 7.86377C1.125 9.47871 1.125 12.4363 1.125 14.0513C1.125 14.9833 1.88044 15.7388 2.8125 15.7388C5.53669 15.7388 12.4633 15.7388 15.1875 15.7388C16.1196 15.7388 16.875 14.9833 16.875 14.0513C16.875 12.4363 16.875 9.47871 16.875 7.86377C16.875 6.93171 16.1196 6.17627 15.1875 6.17627C13.3003 6.17627 9.70031 6.17627 9.70031 6.17627C9.38981 6.17627 9.13781 6.42827 9.13781 6.73877C9.13781 7.04927 9.38981 7.30127 9.70031 7.30127C9.70031 7.30127 13.3003 7.30127 15.1875 7.30127C15.498 7.30127 15.75 7.55327 15.75 7.86377C15.75 9.47871 15.75 12.4363 15.75 14.0513C15.75 14.3623 15.498 14.6138 15.1875 14.6138C12.4633 14.6138 5.53669 14.6138 2.8125 14.6138C2.502 14.6138 2.25 14.3623 2.25 14.0513C2.25 12.4363 2.25 9.47871 2.25 7.86377C2.25 7.71471 2.30906 7.57183 2.41481 7.46608C2.52 7.36089 2.66344 7.30127 2.8125 7.30127H3.76762C4.07812 7.30127 4.33012 7.04927 4.33012 6.73877C4.33012 6.42827 4.07812 6.17627 3.76762 6.17627ZM9.70425 10.1886C9.495 8.8504 8.34244 7.86377 6.98794 7.86377C6.82987 7.86377 6.67013 7.86377 6.51206 7.86377C5.15756 7.86377 4.005 8.8504 3.79575 10.1886C3.68494 10.899 3.56512 11.6651 3.483 12.19C3.43237 12.5151 3.52631 12.8458 3.74006 13.0956C3.95381 13.3453 4.266 13.4888 4.5945 13.4888C5.67731 13.4888 7.82269 13.4888 8.9055 13.4888C9.234 13.4888 9.54619 13.3453 9.75994 13.0956C9.97369 12.8458 10.0676 12.5151 10.017 12.1905L9.70425 10.1886ZM11.25 12.9263H14.0625C14.373 12.9263 14.625 12.6743 14.625 12.3638C14.625 12.0533 14.373 11.8013 14.0625 11.8013H11.25C10.9395 11.8013 10.6875 12.0533 10.6875 12.3638C10.6875 12.6743 10.9395 12.9263 11.25 12.9263ZM11.25 10.6763H13.5C13.8105 10.6763 14.0625 10.4243 14.0625 10.1138C14.0625 9.80327 13.8105 9.55127 13.5 9.55127H11.25C10.9395 9.55127 10.6875 9.80327 10.6875 10.1138C10.6875 10.4243 10.9395 10.6763 11.25 10.6763ZM6.75 3.36377C5.66325 3.36377 4.78125 4.24633 4.78125 5.33252C4.78125 6.41927 5.66325 7.30127 6.75 7.30127C7.83675 7.30127 8.71875 6.41927 8.71875 5.33252C8.71875 4.24633 7.83675 3.36377 6.75 3.36377Z" fill="#94A3B8"/>
</svg>
