<svg width="20" height="20" viewBox="0 0 20 20" fill="none" xmlns="http://www.w3.org/2000/svg">
<circle cx="9.70567" cy="10.2389" r="7.08824" fill="#D6FFDC"/>
<path d="M17.1169 7.59188C17.1169 7.59188 17.1169 7.59188 17.1169 7.55251C16.562 6.03737 15.5551 4.72925 14.2324 3.80508C12.9097 2.88092 11.3351 2.38531 9.72152 2.38531C8.10796 2.38531 6.53334 2.88092 5.21065 3.80508C3.88797 4.72925 2.88106 6.03737 2.32612 7.55251C2.32612 7.55251 2.32612 7.55251 2.32612 7.59188C1.7064 9.30164 1.7064 11.1747 2.32612 12.8844C2.32612 12.8844 2.32612 12.8844 2.32612 12.9238C2.88106 14.4389 3.88797 15.7471 5.21065 16.6712C6.53334 17.5954 8.10796 18.091 9.72152 18.091C11.3351 18.091 12.9097 17.5954 14.2324 16.6712C15.5551 15.7471 16.562 14.4389 17.1169 12.9238C17.1169 12.9238 17.1169 12.9238 17.1169 12.8844C17.7366 11.1747 17.7366 9.30164 17.1169 7.59188ZM3.60988 11.8133C3.33677 10.781 3.33677 9.69535 3.60988 8.663H5.07479C4.9488 9.70933 4.9488 10.767 5.07479 11.8133H3.60988ZM4.2557 13.3885H5.35832C5.54318 14.0909 5.8074 14.77 6.1459 15.4126C5.37351 14.8864 4.72785 14.195 4.2557 13.3885ZM5.35832 7.08783H4.2557C4.72106 6.28378 5.35847 5.59258 6.12227 5.06375C5.79192 5.70739 5.53563 6.38643 5.35832 7.08783ZM8.91819 16.3025C7.95085 15.5927 7.27147 14.5582 7.00436 13.3885H8.91819V16.3025ZM8.91819 11.8133H6.6657C6.51873 10.7684 6.51873 9.70796 6.6657 8.663H8.91819V11.8133ZM8.91819 7.08783H7.00436C7.27147 5.91809 7.95085 4.88364 8.91819 4.17378V7.08783ZM15.1558 7.08783H14.0532C13.8684 6.38543 13.6041 5.70637 13.2656 5.06375C14.038 5.58991 14.6837 6.2813 15.1558 7.08783ZM10.4934 4.17378C11.4607 4.88364 12.1401 5.91809 12.4072 7.08783H10.4934V4.17378ZM10.4934 16.3025V13.3885H12.4072C12.1401 14.5582 11.4607 15.5927 10.4934 16.3025ZM12.7458 11.8133H10.4934V8.663H12.7458C12.8928 9.70796 12.8928 10.7684 12.7458 11.8133ZM13.2893 15.4126C13.6278 14.77 13.892 14.0909 14.0768 13.3885H15.1795C14.7073 14.195 14.0616 14.8864 13.2893 15.4126ZM15.8017 11.8133H14.3368C14.4008 11.2907 14.4324 10.7647 14.4313 10.2382C14.4321 9.71166 14.4006 9.18561 14.3368 8.663H15.8017C16.0748 9.69535 16.0748 10.781 15.8017 11.8133Z" fill="#0B0A0A"/>
</svg>
