<svg width="20" height="20" viewBox="0 0 20 20" fill="none" xmlns="http://www.w3.org/2000/svg">
<rect x="3.33704" y="4.67783" width="13.3889" height="13.3889" fill="#D6E1FF"/>
<path d="M8.0625 10.9804H2.54942C2.34054 10.9804 2.14022 11.0634 1.99252 11.2111C1.84482 11.3588 1.76184 11.5591 1.76184 11.768V17.281C1.76184 17.4899 1.84482 17.6902 1.99252 17.8379C2.14022 17.9856 2.34054 18.0686 2.54942 18.0686H8.0625C8.27137 18.0686 8.4717 17.9856 8.6194 17.8379C8.7671 17.6902 8.85008 17.4899 8.85008 17.281V11.768C8.85008 11.5591 8.7671 11.3588 8.6194 11.2111C8.4717 11.0634 8.27137 10.9804 8.0625 10.9804ZM7.27491 16.4935H3.337V12.5555H7.27491V16.4935ZM16.7259 2.31699H11.2128C11.0039 2.31699 10.8036 2.39996 10.6559 2.54766C10.5082 2.69536 10.4252 2.89569 10.4252 3.10457V8.61764C10.4252 8.82652 10.5082 9.02684 10.6559 9.17454C10.8036 9.32225 11.0039 9.40522 11.2128 9.40522H16.7259C16.9348 9.40522 17.1351 9.32225 17.2828 9.17454C17.4305 9.02684 17.5135 8.82652 17.5135 8.61764V3.10457C17.5135 2.89569 17.4305 2.69536 17.2828 2.54766C17.1351 2.39996 16.9348 2.31699 16.7259 2.31699ZM15.9383 7.83006H12.0004V3.89215H15.9383V7.83006ZM16.7259 10.9804H11.2128C11.0039 10.9804 10.8036 11.0634 10.6559 11.2111C10.5082 11.3588 10.4252 11.5591 10.4252 11.768V17.281C10.4252 17.4899 10.5082 17.6902 10.6559 17.8379C10.8036 17.9856 11.0039 18.0686 11.2128 18.0686H16.7259C16.9348 18.0686 17.1351 17.9856 17.2828 17.8379C17.4305 17.6902 17.5135 17.4899 17.5135 17.281V11.768C17.5135 11.5591 17.4305 11.3588 17.2828 11.2111C17.1351 11.0634 16.9348 10.9804 16.7259 10.9804ZM15.9383 16.4935H12.0004V12.5555H15.9383V16.4935ZM8.0625 2.31699H2.54942C2.34054 2.31699 2.14022 2.39996 1.99252 2.54766C1.84482 2.69536 1.76184 2.89569 1.76184 3.10457V8.61764C1.76184 8.82652 1.84482 9.02684 1.99252 9.17454C2.14022 9.32225 2.34054 9.40522 2.54942 9.40522H8.0625C8.27137 9.40522 8.4717 9.32225 8.6194 9.17454C8.7671 9.02684 8.85008 8.82652 8.85008 8.61764V3.10457C8.85008 2.89569 8.7671 2.69536 8.6194 2.54766C8.4717 2.39996 8.27137 2.31699 8.0625 2.31699ZM7.27491 7.83006H3.337V3.89215H7.27491V7.83006Z" fill="black"/>
</svg>
