<svg width="19" height="19" viewBox="0 0 19 19" fill="none" xmlns="http://www.w3.org/2000/svg">
<path d="M14.2521 10.4504V7.93976C14.251 6.82111 13.854 5.73896 13.1315 4.88494C12.409 4.03092 11.4076 3.46016 10.3046 3.27372V2.41314C10.3046 2.20375 10.2214 2.00293 10.0733 1.85487C9.92525 1.70681 9.72444 1.62363 9.51504 1.62363C9.30565 1.62363 9.10483 1.70681 8.95677 1.85487C8.80871 2.00293 8.72553 2.20375 8.72553 2.41314V3.27372C7.62253 3.46016 6.62109 4.03092 5.89857 4.88494C5.17606 5.73896 4.77908 6.82111 4.77795 7.93976V10.4504C4.31722 10.6133 3.91816 10.9147 3.63547 11.3133C3.35277 11.7119 3.20029 12.1882 3.19891 12.6769V14.2559C3.19891 14.4653 3.28209 14.6661 3.43016 14.8142C3.57822 14.9622 3.77904 15.0454 3.98843 15.0454H6.46751C6.64932 15.7144 7.04623 16.305 7.59699 16.7261C8.14775 17.1471 8.82177 17.3753 9.51504 17.3753C10.2083 17.3753 10.8823 17.1471 11.4331 16.7261C11.9839 16.305 12.3808 15.7144 12.5626 15.0454H15.0417C15.251 15.0454 15.4519 14.9622 15.5999 14.8142C15.748 14.6661 15.8312 14.4653 15.8312 14.2559V12.6769C15.8298 12.1882 15.6773 11.7119 15.3946 11.3133C15.1119 10.9147 14.7129 10.6133 14.2521 10.4504ZM6.35698 7.93976C6.35698 7.10219 6.6897 6.29892 7.28195 5.70667C7.87421 5.11441 8.67747 4.78169 9.51504 4.78169C10.3526 4.78169 11.1559 5.11441 11.7481 5.70667C12.3404 6.29892 12.6731 7.10219 12.6731 7.93976V10.3083H6.35698V7.93976ZM9.51504 15.8349C9.23948 15.8333 8.96915 15.7595 8.73092 15.621C8.49269 15.4825 8.29485 15.2841 8.15707 15.0454H10.873C10.7352 15.2841 10.5374 15.4825 10.2992 15.621C10.0609 15.7595 9.79061 15.8333 9.51504 15.8349ZM14.2521 13.4664H4.77795V12.6769C4.77795 12.4675 4.86113 12.2666 5.00919 12.1186C5.15725 11.9705 5.35807 11.8873 5.56746 11.8873H13.4626C13.672 11.8873 13.8728 11.9705 14.0209 12.1186C14.169 12.2666 14.2521 12.4675 14.2521 12.6769V13.4664Z" fill="#AAAFB5"/>
</svg>
