<svg width="39" height="42" viewBox="0 0 39 42" fill="none" xmlns="http://www.w3.org/2000/svg">
<ellipse cx="19.5" cy="21.1503" rx="18.902" ry="18.902" fill="black"/>
<path d="M26.0805 12.8549C25.7796 12.5166 25.398 12.2791 24.9799 12.17C24.5618 12.0608 24.1242 12.0844 23.7178 12.2381L12.5735 16.3472C12.124 16.5095 11.7313 16.8217 11.4496 17.2407C11.1678 17.6597 11.0109 18.1648 11.0005 18.6863C10.9902 19.2078 11.1268 19.7201 11.3916 20.1523C11.6565 20.5845 12.0364 20.9154 12.479 21.0992L16.6059 22.8367C16.6999 22.8763 16.7854 22.9369 16.8572 23.0146C16.9291 23.0923 16.9856 23.1856 17.0233 23.2884L18.5985 27.8493C18.7588 28.3306 19.0498 28.7456 19.4317 29.0379C19.8136 29.3301 20.268 29.4854 20.7328 29.4825H20.788C21.2613 29.473 21.7201 29.3004 22.1 28.9888C22.4799 28.6772 22.762 28.2423 22.9065 27.7451L26.6318 15.4351C26.7673 14.9911 26.7875 14.5141 26.69 14.0582C26.5926 13.6022 26.3815 13.1854 26.0805 12.8549ZM25.1748 14.8878L21.4101 27.2064C21.3664 27.3623 21.2786 27.4987 21.1596 27.5957C21.0406 27.6926 20.8965 27.7449 20.7486 27.7451C20.6015 27.7477 20.4572 27.7009 20.3348 27.6109C20.2124 27.5209 20.1177 27.392 20.0634 27.2412L18.4882 22.6803C18.374 22.3489 18.1979 22.0477 17.9713 21.7963C17.7447 21.5448 17.4727 21.3488 17.173 21.2208L13.0381 19.4834C12.8987 19.427 12.7788 19.3237 12.6954 19.1881C12.612 19.0525 12.5694 18.8914 12.5735 18.7276C12.5736 18.5644 12.6211 18.4055 12.7089 18.2742C12.7968 18.1429 12.9204 18.046 13.0618 17.9978L24.2297 13.8887C24.3579 13.8311 24.4985 13.8156 24.6345 13.8442C24.7705 13.8729 24.8961 13.9443 24.9961 14.05C25.096 14.1557 25.1661 14.291 25.1978 14.4397C25.2295 14.5884 25.2215 14.744 25.1748 14.8878Z" fill="white"/>
</svg>
