<svg width="20" height="20" viewBox="0 0 20 20" fill="none" xmlns="http://www.w3.org/2000/svg">
<path d="M16.8782 3.13212C16.5773 2.8254 16.1957 2.61012 15.7776 2.51117C15.3595 2.41221 14.9219 2.43363 14.5154 2.57293L3.37114 6.2982C2.92168 6.44532 2.52897 6.72833 2.24722 7.10817C1.96548 7.48802 1.80859 7.94595 1.79822 8.41876C1.78785 8.89158 1.9245 9.35595 2.18932 9.74778C2.45413 10.1396 2.83405 10.4396 3.27663 10.6063L7.40356 12.1814C7.49753 12.2174 7.5831 12.2723 7.65491 12.3427C7.72673 12.4132 7.78326 12.4977 7.82098 12.591L9.39614 16.7258C9.55648 17.1621 9.84744 17.5384 10.2294 17.8033C10.6113 18.0683 11.0657 18.2091 11.5305 18.2064H11.5856C12.059 18.1978 12.5178 18.0413 12.8977 17.7588C13.2776 17.4764 13.5596 17.0821 13.7042 16.6313L17.4295 5.47124C17.565 5.06873 17.5851 4.63635 17.4877 4.22299C17.3903 3.80962 17.1791 3.43175 16.8782 3.13212ZM15.9725 4.97506L12.2078 16.143C12.1641 16.2843 12.0763 16.408 11.9573 16.4958C11.8382 16.5837 11.6942 16.6312 11.5462 16.6313C11.3992 16.6337 11.2548 16.5913 11.1324 16.5097C11.01 16.4281 10.9154 16.3112 10.861 16.1745L9.28588 12.0397C9.17168 11.7392 8.99557 11.4662 8.76898 11.2382C8.54238 11.0103 8.27037 10.8325 7.97062 10.7165L3.83581 9.14137C3.69633 9.09025 3.57643 8.99661 3.49305 8.87366C3.40967 8.75071 3.36702 8.60467 3.37114 8.45617C3.37126 8.30822 3.41872 8.16419 3.50658 8.04515C3.59445 7.92611 3.71809 7.83832 3.85944 7.7946L15.0274 4.06934C15.1556 4.01708 15.2962 4.00308 15.4322 4.02903C15.5682 4.05499 15.6938 4.11978 15.7937 4.21558C15.8937 4.31138 15.9638 4.43409 15.9955 4.56887C16.0272 4.70365 16.0192 4.84473 15.9725 4.97506Z" fill="white"/>
</svg>
