<svg width="15" height="16" viewBox="0 0 15 16" fill="none" xmlns="http://www.w3.org/2000/svg">
<g id="phone">
<path id="Icon" d="M13.037 11.28V13.28C13.0377 13.4657 13.0039 13.6495 12.9378 13.8196C12.8716 13.9897 12.7747 14.1424 12.6531 14.2679C12.5314 14.3934 12.3879 14.489 12.2315 14.5485C12.0752 14.608 11.9095 14.6301 11.7452 14.6133C9.92166 14.3904 8.17005 13.6894 6.63109 12.5667C5.19928 11.5431 3.98536 10.1775 3.07553 8.56668C2.07404 6.82748 1.45079 4.84734 1.25627 2.78668C1.24147 2.60233 1.26094 2.41652 1.31346 2.2411C1.36598 2.06567 1.45039 1.90447 1.56132 1.76776C1.67225 1.63105 1.80727 1.52182 1.95778 1.44703C2.10829 1.37224 2.271 1.33352 2.43553 1.33335H4.21331C4.5009 1.33016 4.77971 1.44473 4.99776 1.6557C5.21582 1.86667 5.35825 2.15964 5.3985 2.48001C5.47353 3.12006 5.61269 3.7485 5.81331 4.35335C5.89304 4.59196 5.9103 4.85129 5.86303 5.1006C5.81577 5.34991 5.70597 5.57875 5.54665 5.76001L4.79405 6.60668C5.63764 8.27571 6.86603 9.65764 8.34961 10.6067L9.1022 9.76001C9.26332 9.58077 9.46674 9.45725 9.68835 9.40408C9.90995 9.35091 10.1405 9.37032 10.3526 9.46001C10.8902 9.68571 11.4488 9.84227 12.0178 9.92668C12.3056 9.97237 12.5685 10.1355 12.7564 10.385C12.9444 10.6345 13.0442 10.9531 13.037 11.28Z" stroke="#94A3B8" stroke-linecap="round" stroke-linejoin="round"/>
</g>
</svg>
