<svg width="20" height="20" viewBox="0 0 20 20" fill="none" xmlns="http://www.w3.org/2000/svg">
<path d="M12.8965 10.8583C13.6686 10.2509 14.2322 9.4178 14.5088 8.47508C14.7855 7.53236 14.7614 6.52685 14.44 5.59845C14.1185 4.67005 13.5157 3.86493 12.7154 3.29508C11.9151 2.72524 10.957 2.41901 9.97455 2.41901C8.99208 2.41901 8.03404 2.72524 7.23371 3.29508C6.43338 3.86493 5.83056 4.67005 5.50913 5.59845C5.18769 6.52685 5.16361 7.53236 5.44025 8.47508C5.71689 9.4178 6.28048 10.2509 7.05262 10.8583C5.72954 11.3884 4.57511 12.2676 3.7124 13.4022C2.84969 14.5367 2.31103 15.8841 2.15386 17.3008C2.14248 17.4042 2.15159 17.5088 2.18066 17.6088C2.20973 17.7087 2.25819 17.8019 2.32328 17.883C2.45473 18.047 2.64593 18.152 2.85481 18.175C3.06369 18.198 3.27314 18.137 3.43709 18.0056C3.60103 17.8741 3.70605 17.6829 3.72902 17.474C3.90196 15.9345 4.63607 14.5126 5.79109 13.48C6.9461 12.4475 8.44105 11.8767 9.9903 11.8767C11.5396 11.8767 13.0345 12.4475 14.1895 13.48C15.3445 14.5126 16.0786 15.9345 16.2516 17.474C16.273 17.6676 16.3653 17.8463 16.5108 17.9757C16.6562 18.1052 16.8445 18.1762 17.0392 18.175H17.1258C17.3322 18.1512 17.5209 18.0468 17.6508 17.8846C17.7806 17.7223 17.841 17.5153 17.8189 17.3086C17.6609 15.888 17.1194 14.5371 16.2522 13.4008C15.3851 12.2645 14.2251 11.3856 12.8965 10.8583ZM9.97455 10.2992C9.35147 10.2992 8.74239 10.1144 8.22432 9.76824C7.70625 9.42207 7.30246 8.93006 7.06402 8.35441C6.82558 7.77877 6.7632 7.14534 6.88475 6.53424C7.00631 5.92313 7.30635 5.3618 7.74693 4.92122C8.18751 4.48063 8.74885 4.1806 9.35995 4.05904C9.97105 3.93748 10.6045 3.99987 11.1801 4.23831C11.7558 4.47675 12.2478 4.88054 12.5939 5.39861C12.9401 5.91667 13.1249 6.52576 13.1249 7.14883C13.1249 7.98435 12.793 8.78565 12.2022 9.37645C11.6114 9.96725 10.8101 10.2992 9.97455 10.2992Z" fill="#AAAFB5"/>
</svg>
