<svg width="19" height="20" viewBox="0 0 19 20" fill="none" xmlns="http://www.w3.org/2000/svg">
<path d="M7.08583 10.2997H5.51067C5.30179 10.2997 5.10147 10.3827 4.95377 10.5304C4.80607 10.6781 4.72309 10.8784 4.72309 11.0873C4.72309 11.2962 4.80607 11.4965 4.95377 11.6442C5.10147 11.7919 5.30179 11.8749 5.51067 11.8749H7.08583C7.29471 11.8749 7.49504 11.7919 7.64274 11.6442C7.79044 11.4965 7.87341 11.2962 7.87341 11.0873C7.87341 10.8784 7.79044 10.6781 7.64274 10.5304C7.49504 10.3827 7.29471 10.2997 7.08583 10.2997ZM6.29825 8.72456H9.44858C9.65746 8.72456 9.85778 8.64158 10.0055 8.49388C10.1532 8.34618 10.2362 8.14586 10.2362 7.93698C10.2362 7.7281 10.1532 7.52778 10.0055 7.38008C9.85778 7.23238 9.65746 7.1494 9.44858 7.1494H6.29825C6.08937 7.1494 5.88905 7.23238 5.74135 7.38008C5.59365 7.52778 5.51067 7.7281 5.51067 7.93698C5.51067 8.14586 5.59365 8.34618 5.74135 8.49388C5.88905 8.64158 6.08937 8.72456 6.29825 8.72456ZM7.08583 13.4501H5.51067C5.30179 13.4501 5.10147 13.533 4.95377 13.6807C4.80607 13.8284 4.72309 14.0288 4.72309 14.2376C4.72309 14.4465 4.80607 14.6468 4.95377 14.7945C5.10147 14.9422 5.30179 15.0252 5.51067 15.0252H7.08583C7.29471 15.0252 7.49504 14.9422 7.64274 14.7945C7.79044 14.6468 7.87341 14.4465 7.87341 14.2376C7.87341 14.0288 7.79044 13.8284 7.64274 13.6807C7.49504 13.533 7.29471 13.4501 7.08583 13.4501ZM16.5368 10.2997H14.1741V3.21149C14.1746 3.07271 14.1385 2.93625 14.0693 2.81592C14.0002 2.6956 13.9005 2.59568 13.7803 2.52629C13.6606 2.45717 13.5247 2.42078 13.3865 2.42078C13.2482 2.42078 13.1124 2.45717 12.9927 2.52629L10.63 3.88093L8.26721 2.52629C8.14748 2.45717 8.01166 2.42078 7.87341 2.42078C7.73517 2.42078 7.59935 2.45717 7.47962 2.52629L5.11688 3.88093L2.75413 2.52629C2.63441 2.45717 2.49859 2.42078 2.36034 2.42078C2.22209 2.42078 2.08628 2.45717 1.96655 2.52629C1.84636 2.59568 1.74664 2.6956 1.67749 2.81592C1.60834 2.93625 1.57221 3.07271 1.57276 3.21149V15.8128C1.57276 16.4394 1.82169 17.0404 2.26479 17.4835C2.70789 17.9266 3.30887 18.1755 3.93551 18.1755H14.9617C15.5883 18.1755 16.1893 17.9266 16.6324 17.4835C17.0755 17.0404 17.3244 16.4394 17.3244 15.8128V11.0873C17.3244 10.8784 17.2414 10.6781 17.0937 10.5304C16.946 10.3827 16.7457 10.2997 16.5368 10.2997ZM3.93551 16.6004C3.72663 16.6004 3.5263 16.5174 3.3786 16.3697C3.2309 16.222 3.14792 16.0217 3.14792 15.8128V4.57401L4.72309 5.47185C4.84464 5.53534 4.97974 5.56849 5.11688 5.56849C5.25401 5.56849 5.38912 5.53534 5.51067 5.47185L7.87341 4.11721L10.2362 5.47185C10.3577 5.53534 10.4928 5.56849 10.63 5.56849C10.7671 5.56849 10.9022 5.53534 11.0237 5.47185L12.5989 4.57401V15.8128C12.601 16.0815 12.649 16.3478 12.7407 16.6004H3.93551ZM15.7492 15.8128C15.7492 16.0217 15.6663 16.222 15.5186 16.3697C15.3709 16.5174 15.1705 16.6004 14.9617 16.6004C14.7528 16.6004 14.5524 16.5174 14.4047 16.3697C14.257 16.222 14.1741 16.0217 14.1741 15.8128V11.8749H15.7492V15.8128ZM10.6772 13.5839C10.6333 13.5541 10.5856 13.5303 10.5354 13.5131C10.4885 13.4891 10.438 13.4731 10.3858 13.4658C10.2593 13.4405 10.1285 13.4466 10.0049 13.4837C9.88126 13.5208 9.76867 13.5877 9.67698 13.6785C9.53306 13.8294 9.45148 14.0291 9.44858 14.2376C9.44732 14.34 9.46605 14.4417 9.50371 14.5369C9.54652 14.6326 9.60509 14.7205 9.67698 14.7968C9.75353 14.8664 9.84144 14.9223 9.93688 14.9622C10.0312 15.0039 10.1331 15.0254 10.2362 15.0254C10.3392 15.0254 10.4412 15.0039 10.5354 14.9622C10.6309 14.9223 10.7188 14.8664 10.7953 14.7968C10.8683 14.7232 10.9261 14.636 10.9653 14.54C11.0045 14.444 11.0243 14.3413 11.0237 14.2376C11.0208 14.0291 10.9393 13.8294 10.7953 13.6785C10.7579 13.6446 10.7185 13.613 10.6772 13.5839ZM10.7875 10.5281C10.6955 10.4386 10.583 10.3728 10.4599 10.3367C10.3367 10.3005 10.2066 10.295 10.0808 10.3206C9.955 10.3462 9.83739 10.4022 9.73818 10.4837C9.63898 10.5652 9.56119 10.6696 9.51159 10.788C9.46257 10.9073 9.4436 11.0369 9.45637 11.1652C9.46913 11.2936 9.51322 11.4169 9.58478 11.5242C9.65633 11.6315 9.75315 11.7196 9.86673 11.7808C9.98031 11.8419 10.1072 11.8742 10.2362 11.8749C10.445 11.8749 10.6454 11.7919 10.7931 11.6442C10.9408 11.4965 11.0237 11.2962 11.0237 11.0873C11.0225 10.9844 11.0011 10.8827 10.9607 10.788C10.9228 10.6897 10.8636 10.601 10.7875 10.5281Z" fill="#AAAFB5"/>
</svg>
