<svg width="20" height="20" viewBox="0 0 20 20" fill="none" xmlns="http://www.w3.org/2000/svg">
<rect x="2.54956" y="7.08768" width="14.1765" height="8.6634" fill="#FCB3C5"/>
<path d="M14.3633 5.5125H11.5359L13.3473 3.70894C13.4207 3.6355 13.479 3.54832 13.5187 3.45238C13.5585 3.35644 13.5789 3.2536 13.5789 3.14975C13.5789 3.0459 13.5585 2.94307 13.5187 2.84712C13.479 2.75118 13.4207 2.664 13.3473 2.59057C13.2739 2.51714 13.1867 2.45889 13.0908 2.41914C12.9948 2.3794 12.892 2.35895 12.7881 2.35895C12.5784 2.35895 12.3772 2.44226 12.2289 2.59057L9.6378 5.15021L8.71633 3.57505C8.66461 3.48507 8.59568 3.40615 8.51347 3.34281C8.43126 3.27947 8.33738 3.23294 8.23719 3.20588C8.13699 3.17882 8.03245 3.17176 7.92953 3.1851C7.82661 3.19844 7.72732 3.23193 7.63734 3.28364C7.54736 3.33535 7.46844 3.40428 7.4051 3.4865C7.34176 3.56871 7.29523 3.66259 7.26817 3.76278C7.24111 3.86298 7.23405 3.96752 7.24739 4.07044C7.26074 4.17336 7.29422 4.27265 7.34593 4.36263L8.06263 5.5125H4.91231C4.28567 5.5125 3.68469 5.76143 3.24159 6.20453C2.79849 6.64763 2.54956 7.24861 2.54956 7.87524V14.1759C2.54956 14.8025 2.79849 15.4035 3.24159 15.8466C3.68469 16.2897 4.28567 16.5386 4.91231 16.5386V17.3262C4.91231 17.5351 4.99528 17.7354 5.14298 17.8831C5.29068 18.0308 5.49101 18.1138 5.69989 18.1138C5.90877 18.1138 6.10909 18.0308 6.25679 17.8831C6.40449 17.7354 6.48747 17.5351 6.48747 17.3262V16.5386H12.7881V17.3262C12.7881 17.5351 12.8711 17.7354 13.0188 17.8831C13.1665 18.0308 13.3668 18.1138 13.5757 18.1138C13.7846 18.1138 13.9849 18.0308 14.1326 17.8831C14.2803 17.7354 14.3633 17.5351 14.3633 17.3262V16.5386C14.9899 16.5386 15.5909 16.2897 16.034 15.8466C16.4771 15.4035 16.726 14.8025 16.726 14.1759V7.87524C16.726 7.24861 16.4771 6.64763 16.034 6.20453C15.5909 5.76143 14.9899 5.5125 14.3633 5.5125ZM15.1509 14.1759C15.1509 14.3848 15.0679 14.5851 14.9202 14.7328C14.7725 14.8805 14.5722 14.9635 14.3633 14.9635H4.91231C4.70343 14.9635 4.5031 14.8805 4.3554 14.7328C4.2077 14.5851 4.12472 14.3848 4.12472 14.1759V7.87524C4.12472 7.66636 4.2077 7.46604 4.3554 7.31834C4.5031 7.17064 4.70343 7.08766 4.91231 7.08766H14.3633C14.5722 7.08766 14.7725 7.17064 14.9202 7.31834C15.0679 7.46604 15.1509 7.66636 15.1509 7.87524V14.1759Z" fill="black"/>
</svg>
