<svg width="20" height="20" viewBox="0 0 20 20" fill="none" xmlns="http://www.w3.org/2000/svg">
<circle cx="9.7057" cy="9.40396" r="5.51307" fill="#A4A4A4"/>
<path d="M15.2185 8.22184H14.9665L13.982 5.76458C13.8062 5.32768 13.5038 4.95328 13.1136 4.68946C12.7235 4.42563 12.2635 4.28442 11.7925 4.28393H7.06701C6.51987 4.28236 5.98914 4.47074 5.56542 4.8169C5.1417 5.16306 4.85125 5.64554 4.74364 6.182L4.3341 8.22184H4.19234C3.5657 8.22184 2.96472 8.47077 2.52162 8.91387C2.07852 9.35697 1.82959 9.95795 1.82959 10.5846V12.9473C1.82959 13.1562 1.91257 13.3565 2.06027 13.5042C2.20797 13.6519 2.40829 13.7349 2.61717 13.7349H3.40475C3.40475 14.3616 3.65368 14.9625 4.09679 15.4056C4.53989 15.8487 5.14086 16.0977 5.7675 16.0977C6.39414 16.0977 6.99511 15.8487 7.43821 15.4056C7.88131 14.9625 8.13024 14.3616 8.13024 13.7349H11.2806C11.2806 14.3616 11.5295 14.9625 11.9726 15.4056C12.4157 15.8487 13.0167 16.0977 13.6433 16.0977C14.27 16.0977 14.8709 15.8487 15.314 15.4056C15.7571 14.9625 16.0061 14.3616 16.0061 13.7349H16.7936C17.0025 13.7349 17.2028 13.6519 17.3505 13.5042C17.4982 13.3565 17.5812 13.1562 17.5812 12.9473V10.5846C17.5812 9.95795 17.3323 9.35697 16.8892 8.91387C16.4461 8.47077 15.8451 8.22184 15.2185 8.22184ZM10.493 5.85909H11.7925C11.9489 5.86051 12.1013 5.90845 12.2304 5.99682C12.3594 6.08519 12.4592 6.20997 12.5171 6.35527L13.2653 8.22184H10.493V5.85909ZM6.2873 6.48916C6.32412 6.30859 6.4231 6.14664 6.56701 6.03152C6.71091 5.91639 6.89063 5.85538 7.07488 5.85909H8.91783V8.22184H5.94077L6.2873 6.48916ZM5.7675 14.5225C5.61173 14.5225 5.45946 14.4763 5.32994 14.3898C5.20042 14.3032 5.09948 14.1802 5.03987 14.0363C4.98026 13.8924 4.96466 13.734 4.99505 13.5813C5.02544 13.4285 5.10045 13.2882 5.21059 13.178C5.32074 13.0679 5.46107 12.9929 5.61385 12.9625C5.76663 12.9321 5.92498 12.9477 6.06889 13.0073C6.2128 13.0669 6.33581 13.1678 6.42235 13.2974C6.50889 13.4269 6.55508 13.5791 6.55508 13.7349C6.55508 13.9438 6.4721 14.1441 6.3244 14.2918C6.1767 14.4395 5.97638 14.5225 5.7675 14.5225ZM13.6433 14.5225C13.4875 14.5225 13.3353 14.4763 13.2058 14.3898C13.0762 14.3032 12.9753 14.1802 12.9157 14.0363C12.8561 13.8924 12.8405 13.734 12.8709 13.5813C12.9013 13.4285 12.9763 13.2882 13.0864 13.178C13.1966 13.0679 13.3369 12.9929 13.4897 12.9625C13.6424 12.9321 13.8008 12.9477 13.9447 13.0073C14.0886 13.0669 14.2116 13.1678 14.2982 13.2974C14.3847 13.4269 14.4309 13.5791 14.4309 13.7349C14.4309 13.9438 14.3479 14.1441 14.2002 14.2918C14.0525 14.4395 13.8522 14.5225 13.6433 14.5225ZM16.0061 12.1597H15.3917C15.1703 11.9161 14.9004 11.7214 14.5993 11.5882C14.2982 11.455 13.9726 11.3862 13.6433 11.3862C13.3141 11.3862 12.9885 11.455 12.6874 11.5882C12.3863 11.7214 12.1163 11.9161 11.8949 12.1597H7.51593C7.29448 11.9161 7.02455 11.7214 6.72345 11.5882C6.42236 11.455 6.09675 11.3862 5.7675 11.3862C5.43825 11.3862 5.11264 11.455 4.81155 11.5882C4.51045 11.7214 4.24052 11.9161 4.01907 12.1597H3.40475V10.5846C3.40475 10.3757 3.48773 10.1754 3.63543 10.0277C3.78313 9.87998 3.98346 9.797 4.19234 9.797H15.2185C15.4274 9.797 15.6277 9.87998 15.7754 10.0277C15.9231 10.1754 16.0061 10.3757 16.0061 10.5846V12.1597Z" fill="#0B0A0A"/>
</svg>
