<svg width="20" height="20" viewBox="0 0 20 20" fill="none" xmlns="http://www.w3.org/2000/svg">
<circle cx="9.34887" cy="10.2383" r="6.30066" fill="#BCE2FE"/>
<path d="M10.0529 2.49576C9.92268 2.40773 9.76908 2.36069 9.61188 2.36069C9.45468 2.36069 9.30107 2.40773 9.17083 2.49576C8.93456 2.65328 3.50812 6.43367 3.50812 12.0098C3.50812 13.6286 4.15119 15.1811 5.29587 16.3258C6.44054 17.4704 7.99306 18.1135 9.61188 18.1135C11.2307 18.1135 12.7832 17.4704 13.9279 16.3258C15.0726 15.1811 15.7156 13.6286 15.7156 12.0098C15.7156 6.33916 10.2813 2.6454 10.0529 2.49576ZM9.61188 16.5383C8.41146 16.5363 7.2608 16.0585 6.41198 15.2097C5.56315 14.3608 5.08536 13.2102 5.08328 12.0098C5.08328 8.07184 8.399 5.10266 9.61188 4.13393C10.8326 5.08691 14.1405 8.07184 14.1405 12.0098C14.1384 13.2102 13.6606 14.3608 12.8118 15.2097C11.963 16.0585 10.8123 16.5363 9.61188 16.5383Z" fill="#0B0A0A"/>
</svg>
